<?xml version="1.0" standalone="no"?>
<!DOCTYPE svg PUBLIC "-//W3C//DTD SVG 20010904//EN"
 "http://www.w3.org/TR/2001/REC-SVG-20010904/DTD/svg10.dtd">
<svg version="1.0" xmlns="http://www.w3.org/2000/svg"
 width="411.000000pt" height="429.000000pt" viewBox="0 0 411.000000 429.000000"
 preserveAspectRatio="xMidYMid meet">

<g transform="translate(0.000000,429.000000) scale(0.100000,-0.100000)"
fill="#000000" stroke="none">
<path d="M1665 3176 c-28 -42 2 -86 58 -86 15 0 69 -47 167 -145 l144 -144
-27 -29 c-15 -15 -27 -37 -27 -48 0 -11 -39 -59 -95 -114 -90 -89 -111 -120
-83 -120 7 0 50 37 95 82 62 62 83 78 83 63 0 -12 -38 -59 -95 -115 -90 -89
-111 -120 -83 -120 7 0 50 37 95 82 65 65 83 78 83 61 0 -13 -34 -53 -96 -112
-65 -63 -94 -97 -90 -107 8 -20 53 15 154 119 l72 75 0 108 0 109 111 111 c62
62 118 110 125 107 18 -7 52 14 59 37 10 31 -20 70 -53 70 -36 0 -52 -17 -52
-55 0 -24 -11 -42 -48 -78 l-48 -47 -107 108 c-82 83 -107 113 -107 134 0 31
-23 58 -51 58 -21 0 -59 -33 -59 -53 0 -26 31 -57 58 -57 21 0 51 -24 135
-108 96 -97 106 -110 92 -122 -14 -12 -34 4 -166 136 -114 114 -149 155 -149
174 0 34 -17 50 -52 50 -18 0 -33 -8 -43 -24z m65 -27 c0 -12 -29 -24 -37 -16
-3 4 -3 13 0 21 6 16 37 11 37 -5z m140 -23 c0 -15 -24 -28 -34 -19 -13 14 -5
33 14 33 11 0 20 -6 20 -14z m408 -119 c2 -10 -3 -17 -12 -17 -18 0 -29 16
-21 31 9 14 29 6 33 -14z"/>
<path d="M1562 3074 c-31 -21 -30 -69 3 -90 14 -9 31 -14 38 -11 9 3 47 -28
95 -76 l81 -82 3 -115 c2 -94 6 -115 18 -115 12 0 16 21 18 119 l3 120 -87 87
c-64 64 -88 95 -89 115 0 14 -11 35 -24 45 -28 23 -31 23 -59 3z m46 -47 c2
-10 -3 -17 -12 -17 -18 0 -29 16 -21 31 9 14 29 6 33 -14z"/>
<path d="M2372 3074 c-13 -9 -22 -26 -22 -42 0 -22 -31 -58 -150 -177 l-150
-150 0 -120 0 -121 75 -74 c59 -59 77 -72 87 -62 10 10 -3 28 -60 85 l-72 72
0 100 0 100 148 147 c119 119 151 146 168 142 15 -4 27 2 42 20 23 30 19 60
-11 81 -26 19 -28 19 -55 -1z m44 -35 c10 -17 -13 -36 -27 -22 -12 12 -4 33
11 33 5 0 12 -5 16 -11z"/>
<path d="M1692 3048 c-21 -21 -14 -66 13 -84 14 -9 31 -14 39 -11 8 3 41 -22
79 -61 l66 -67 3 -84 c2 -57 7 -86 16 -89 9 -3 12 21 12 95 l0 99 -69 68 c-41
40 -67 74 -64 82 3 8 -2 25 -11 39 -18 27 -63 34 -84 13z m56 -41 c2 -10 -3
-17 -12 -17 -18 0 -29 16 -21 31 9 14 29 6 33 -14z"/>
<path d="M2479 2949 c-14 -14 -19 -28 -15 -42 5 -18 -22 -50 -149 -177 l-155
-155 65 -65 c48 -48 68 -61 76 -53 9 9 -2 25 -41 63 l-52 52 34 37 c18 20 80
84 138 144 82 84 111 107 132 107 52 0 78 59 40 93 -25 23 -48 21 -73 -4z m56
-39 c0 -22 -29 -18 -33 3 -3 14 1 18 15 15 10 -2 18 -10 18 -18z"/>
<path d="M2344 2925 c-16 -16 -23 -32 -20 -43 4 -13 -25 -49 -109 -132 l-115
-115 0 -53 c0 -54 1 -55 72 -128 68 -71 98 -89 98 -61 0 7 -29 42 -65 77 -61
60 -65 67 -65 110 0 44 2 47 108 151 70 70 115 106 130 107 13 0 30 6 38 13
22 18 17 66 -8 83 -30 21 -35 20 -64 -9z m52 -26 c10 -17 -13 -36 -27 -22 -12
12 -4 33 11 33 5 0 12 -5 16 -11z"/>
<path d="M3060 2143 c-50 -19 -66 -77 -31 -112 18 -18 53 -24 181 -34 23 -1
35 -7 35 -17 0 -12 -21 -16 -117 -18 -65 -1 -118 -7 -118 -12 0 -5 7 -16 16
-24 12 -13 39 -16 128 -16 126 0 146 9 146 66 0 56 -17 66 -126 75 -54 4 -100
8 -101 9 -2 0 -3 7 -3 15 0 12 19 15 115 15 94 0 115 3 115 14 0 32 -41 46
-135 45 -49 0 -97 -3 -105 -6z"/>
<path d="M561 2030 c-39 -60 -71 -112 -71 -115 0 -3 14 -5 30 -5 28 0 36 9 82
80 28 44 54 80 58 80 4 0 30 -36 58 -80 46 -72 54 -80 82 -80 18 0 30 4 28 8
-1 5 -34 56 -72 115 -60 94 -72 107 -96 107 -25 0 -37 -13 -99 -110z"/>
<path d="M750 2115 l0 -25 110 0 110 0 0 -35 0 -35 -72 0 -72 0 54 -55 c50
-51 58 -55 100 -55 l45 1 -30 25 c-16 14 -25 28 -19 30 39 16 49 33 49 87 0
84 -6 87 -151 87 l-124 0 0 -25z"/>
<path d="M1070 2025 l0 -115 25 0 25 0 0 115 0 115 -25 0 -25 0 0 -115z"/>
<path d="M1203 2094 l-73 -46 83 -69 c55 -46 91 -68 109 -69 15 0 29 3 32 8 2
4 -27 34 -66 66 l-70 59 66 41 c36 22 66 44 66 48 0 5 -17 8 -37 8 -27 -1 -58
-13 -110 -46z"/>
<path d="M1442 2031 c-38 -60 -68 -112 -64 -115 3 -3 16 -6 29 -6 18 0 35 17
74 78 28 42 54 78 58 80 5 2 31 -33 60 -78 45 -71 54 -80 81 -80 16 0 30 2 30
5 0 2 -32 54 -71 115 -96 149 -101 149 -197 1z"/>
<path d="M1730 2024 l0 -115 28 3 c26 3 27 5 32 78 l5 75 81 -77 c66 -64 86
-78 112 -78 l32 0 0 115 0 115 -30 0 -30 0 0 -75 c0 -41 -3 -75 -8 -75 -4 0
-41 34 -82 75 -62 63 -80 75 -107 75 l-33 0 0 -116z"/>
<path d="M2042 2118 c3 -20 10 -23 61 -26 l57 -3 0 -90 0 -90 28 3 c27 3 27 3
30 91 l3 87 54 0 c52 0 55 1 55 25 l0 25 -146 0 c-145 0 -145 0 -142 -22z"/>
<path d="M2360 2115 l0 -25 111 0 110 0 -3 -32 -3 -33 -69 -3 -69 -3 53 -54
c48 -48 59 -55 94 -55 l40 0 -27 28 -27 28 29 10 c32 13 47 61 35 111 -12 51
-18 53 -150 53 l-124 0 0 -25z"/>
<path d="M2674 2125 c-11 -28 1 -181 15 -198 11 -14 34 -17 132 -17 151 0 149
-2 149 131 l0 100 -27 -3 c-28 -3 -28 -3 -31 -90 l-3 -88 -89 0 -90 0 0 90 c0
90 0 90 -25 90 -14 0 -28 -7 -31 -15z"/>
<path d="M3324 2125 c-10 -26 6 -35 61 -35 l54 0 3 -87 c3 -88 3 -88 31 -91
l27 -3 0 90 0 90 58 3 c50 3 57 6 60 26 3 22 3 22 -143 22 -118 0 -147 -3
-151 -15z"/>
</g>
</svg>
